<svg width="21" height="17" viewBox="0 0 21 17" fill="none" xmlns="http://www.w3.org/2000/svg">
<path d="M2.35312 16.7C2.23499 16.5778 2.16255 16.4186 2.14798 16.2492C2.13341 16.0798 2.17762 15.9106 2.27313 15.77L16.7031 1.20999C16.7031 1.20999 16.7031 1.20999 16.7031 1.14999C16.7196 1.1535 16.7366 1.1535 16.7531 1.14999L17.6731 0.220001C17.7409 0.150641 17.8217 0.0954508 17.911 0.0576784C18.0003 0.019906 18.0962 0.000306422 18.1931 1.71716e-07C18.2886 -6.673e-05 18.3832 0.019416 18.4709 0.0572511C18.5586 0.0950862 18.6376 0.150474 18.7031 0.220001C18.7765 0.284554 18.8344 0.364833 18.8725 0.454865C18.9106 0.544896 18.9279 0.64235 18.9231 0.73999C18.9252 0.837278 18.9067 0.93391 18.8687 1.02353C18.8308 1.11315 18.7744 1.19373 18.7031 1.25999L16.9331 3.04999C18.4556 4.50175 19.6521 6.26064 20.4431 8.20999C20.4827 8.30154 20.5032 8.40024 20.5032 8.5C20.5032 8.59976 20.4827 8.69845 20.4431 8.78999C18.3531 13.7 14.6431 16.63 10.5031 16.63C8.6036 16.612 6.75732 16.0001 5.22311 14.88L3.33313 16.79C3.26458 16.8575 3.18333 16.9109 3.09409 16.9469C3.00484 16.983 2.90935 17.001 2.81311 17C2.71998 16.9841 2.6311 16.9493 2.55197 16.8977C2.47285 16.8461 2.40517 16.7788 2.35312 16.7ZM8.35312 11.7C8.94099 12.1032 9.62838 12.3372 10.3402 12.3763C11.052 12.4153 11.7608 12.2581 12.3893 11.9216C13.0178 11.5852 13.5418 11.0825 13.904 10.4685C14.2662 9.85453 14.4527 9.1528 14.4431 8.43999C14.4419 7.65347 14.2089 6.88477 13.7731 6.23L12.7031 7.31C12.8894 7.65737 12.9856 8.04585 12.9831 8.43999C12.9858 9.08805 12.7316 9.71078 12.2762 10.1718C11.8207 10.6329 11.2012 10.8947 10.5531 10.9C10.159 10.9025 9.7705 10.8062 9.42313 10.62L8.35312 11.7ZM0.613129 8.7C0.5735 8.60845 0.55304 8.50974 0.55304 8.40999C0.55304 8.31023 0.5735 8.21154 0.613129 8.12C2.70313 3.21 6.41312 0.289993 10.5431 0.289993C11.9367 0.302999 13.3074 0.645674 14.5431 1.28999L11.3531 4.50999C11.1081 4.47139 10.861 4.448 10.6131 4.43999C9.5743 4.44791 8.58086 4.86684 7.85004 5.60516C7.11921 6.34349 6.71043 7.34114 6.7131 8.37999C6.71161 8.63169 6.73506 8.88292 6.78311 9.12999L3.17313 12.77C2.13378 11.553 1.28726 10.1837 0.663116 8.70999L0.613129 8.7Z" fill="#7D8CAC"/>
</svg>
