<svg width="18" height="21" viewBox="0 0 18 21" fill="none" xmlns="http://www.w3.org/2000/svg">
<path d="M13.2706 7.94995V5.81C13.2706 4.60061 12.7902 3.44074 11.9351 2.58557C11.0799 1.73041 9.92002 1.25 8.71063 1.25C7.50125 1.25 6.34143 1.73041 5.48627 2.58557C4.6311 3.44074 4.15063 4.60061 4.15063 5.81V7.96997" stroke="#99A7C7" stroke-width="1.5" stroke-linecap="round" stroke-linejoin="round"/>
<path d="M12.5306 19.75H4.89056C3.88539 19.75 2.9214 19.3507 2.21063 18.6399C1.49987 17.9291 1.10059 16.9651 1.10059 15.96V11.67C1.10059 10.6648 1.49987 9.70081 2.21063 8.99005C2.9214 8.27929 3.88539 7.88 4.89056 7.88H12.5306C13.5357 7.88 14.4997 8.27929 15.2105 8.99005C15.9213 9.70081 16.3206 10.6648 16.3206 11.67V15.96C16.3219 16.458 16.2248 16.9515 16.0348 17.4119C15.8448 17.8723 15.5656 18.2906 15.2134 18.6428C14.8612 18.995 14.443 19.2742 13.9825 19.4642C13.5221 19.6542 13.0287 19.7513 12.5306 19.75V19.75Z" stroke="#99A7C7" stroke-width="1.5" stroke-linecap="round" stroke-linejoin="round"/>
<path d="M8.71057 12.71V14.93" stroke="#99A7C7" stroke-width="1.5" stroke-linecap="round" stroke-linejoin="round"/>
</svg>
