<svg width="22" height="22" viewBox="0 0 22 22" fill="none" xmlns="http://www.w3.org/2000/svg">
<ellipse cx="10.6141" cy="6.67155" rx="4.37986" ry="4.37986" stroke="#99A7C7" stroke-width="1.5" stroke-linecap="round" stroke-linejoin="round"/>
<path fill-rule="evenodd" clip-rule="evenodd" d="M3.6667 17.143C3.66553 16.8351 3.73439 16.5309 3.86807 16.2536C4.2876 15.4145 5.47067 14.9698 6.45236 14.7684C7.16036 14.6174 7.87813 14.5164 8.60034 14.4664C9.93746 14.3489 11.2823 14.3489 12.6194 14.4664C13.3416 14.517 14.0593 14.6179 14.7674 14.7684C15.7491 14.9698 16.9321 15.3726 17.3517 16.2536C17.6205 16.819 17.6205 17.4754 17.3517 18.0408C16.9321 18.9218 15.7491 19.3245 14.7674 19.5175C14.0602 19.6748 13.3422 19.7786 12.6194 19.8279C11.5311 19.9202 10.4377 19.937 9.3471 19.8783C9.09538 19.8783 8.85206 19.8783 8.60034 19.8279C7.88027 19.7792 7.16498 19.6754 6.46075 19.5175C5.47067 19.3245 4.29599 18.9218 3.86807 18.0408C3.73507 17.7602 3.66628 17.4535 3.6667 17.143Z" stroke="#99A7C7" stroke-width="1.5" stroke-linecap="round" stroke-linejoin="round"/>
</svg>
