<svg width="16" height="15" viewBox="0 0 16 15" fill="none" xmlns="http://www.w3.org/2000/svg">
<path d="M7.38771 3.75883V0.592305C7.39205 0.44056 7.4535 0.29588 7.56001 0.186572C7.66651 0.0772631 7.81041 0.0111997 7.96357 0.00129884C8.11672 -0.00860197 8.2681 0.0383688 8.38809 0.133036C8.50807 0.227703 8.58804 0.363254 8.61231 0.513149V3.76676H12.4381C13.3674 3.78049 14.2557 4.14744 14.9189 4.79153C15.582 5.43562 15.9691 6.30743 15.9998 7.22618V11.3902C16.0098 12.3074 15.6632 13.1934 15.0317 13.8652C14.4001 14.537 13.5319 14.9432 12.6062 15H3.55391C2.62477 14.9881 1.73624 14.6215 1.07398 13.9769C0.411726 13.3322 0.0269985 12.4593 0.000231978 11.5406V7.38451C-0.0102313 6.46818 0.333611 5.5825 0.961429 4.90857C1.58925 4.23464 2.45359 3.82336 3.37781 3.75883H7.3797V8.82528L6.09911 7.51908C6.04324 7.46283 5.97659 7.41816 5.90307 7.38766C5.82955 7.35716 5.75066 7.34146 5.67093 7.34146C5.59121 7.34146 5.51226 7.35716 5.43874 7.38766C5.36522 7.41816 5.29857 7.46283 5.2427 7.51908C5.14616 7.62605 5.08763 7.76131 5.07607 7.90424C5.06451 8.04718 5.10054 8.18993 5.17866 8.31071L5.2427 8.38988L7.57183 10.7648C7.67658 10.867 7.81482 10.9288 7.96161 10.9389C8.10841 10.9491 8.25408 10.907 8.37221 10.8202L8.42824 10.7648L10.7573 8.38988C10.8728 8.27054 10.9372 8.11174 10.9372 7.94657C10.9372 7.7814 10.8728 7.62259 10.7573 7.50325C10.6554 7.3968 10.5172 7.33144 10.3694 7.31975C10.2216 7.30806 10.0747 7.35087 9.95694 7.43993L9.88489 7.50325L8.6043 8.82528V3.75883H7.38771Z" fill="#99A7C7"/>
</svg>
