<svg width="39" height="39" viewBox="0 0 39 39" fill="none" xmlns="http://www.w3.org/2000/svg">
<path d="M19.5 39C8.73045 39 -1.32312e-06 30.2696 -8.52372e-07 19.5C-3.8162e-07 8.73045 8.73045 -1.32312e-06 19.5 -8.52372e-07C30.2696 -3.8162e-07 39 8.73045 39 19.5C39 30.2696 30.2696 39 19.5 39Z" fill="#F1F4FB"/>
<path d="M19.3877 15.7588V12.5923C19.3921 12.4406 19.4535 12.2959 19.56 12.1866C19.6665 12.0773 19.8104 12.0112 19.9636 12.0013C20.1167 11.9914 20.2681 12.0384 20.3881 12.133C20.5081 12.2277 20.588 12.3633 20.6123 12.5131V15.7668H24.4381C25.3674 15.7805 26.2557 16.1474 26.9189 16.7915C27.582 17.4356 27.9691 18.3074 27.9998 19.2262V23.3902C28.0098 24.3074 27.6632 25.1934 27.0317 25.8652C26.4001 26.537 25.5319 26.9432 24.6062 27H15.5539C14.6248 26.9881 13.7362 26.6215 13.074 25.9769C12.4117 25.3322 12.027 24.4593 12.0002 23.5406V19.3845C11.9898 18.4682 12.3336 17.5825 12.9614 16.9086C13.5892 16.2346 14.4536 15.8234 15.3778 15.7588H19.3797V20.8253L18.0991 19.5191C18.0432 19.4628 17.9766 19.4182 17.9031 19.3877C17.8296 19.3572 17.7507 19.3415 17.6709 19.3415C17.5912 19.3415 17.5123 19.3572 17.4387 19.3877C17.3652 19.4182 17.2986 19.4628 17.2427 19.5191C17.1462 19.626 17.0876 19.7613 17.0761 19.9042C17.0645 20.0472 17.1005 20.1899 17.1787 20.3107L17.2427 20.3899L19.5718 22.7648C19.6766 22.867 19.8148 22.9288 19.9616 22.9389C20.1084 22.9491 20.2541 22.907 20.3722 22.8202L20.4282 22.7648L22.7573 20.3899C22.8728 20.2705 22.9372 20.1117 22.9372 19.9466C22.9372 19.7814 22.8728 19.6226 22.7573 19.5032C22.6554 19.3968 22.5172 19.3314 22.3694 19.3197C22.2216 19.3081 22.0747 19.3509 21.9569 19.4399L21.8849 19.5032L20.6043 20.8253V15.7588H19.3877Z" fill="#99A7C7"/>
</svg>
