<svg width="26" height="24" viewBox="0 0 26 24" fill="none" xmlns="http://www.w3.org/2000/svg">
<path d="M13.0831 24L12.7437 23.7984C9.74943 21.9884 6.96249 19.8769 4.42967 17.4994C2.68178 15.7894 1.345 13.7292 0.514096 11.4649C-0.22938 9.29478 -0.164735 6.94221 0.696842 4.81314C1.13358 3.766 1.80284 2.824 2.6575 2.05348C3.51215 1.28296 4.53139 0.702659 5.64349 0.353428C6.01947 0.22696 6.40923 0.142427 6.80513 0.10147H6.96174C7.32342 0.0391082 7.69091 0.0137652 8.0581 0.0258753H8.20169C9.01598 0.0382278 9.82271 0.178651 10.5902 0.441614H10.6685C10.7131 0.457854 10.7533 0.483703 10.7859 0.517199C11.0725 0.594696 11.3485 0.704646 11.6082 0.844752L12.1042 1.05892C12.2362 1.12979 12.3627 1.20979 12.4827 1.29828L12.6654 1.42426C12.7862 1.48372 12.8999 1.55552 13.0048 1.63844C14.4265 0.572106 16.1771 -0.00441567 17.9776 0.000683436C18.8023 -0.0103882 19.6231 0.113133 20.4052 0.366028C21.5092 0.710561 22.5211 1.28529 23.3692 2.04947C24.2173 2.81366 24.8808 3.74858 25.3127 4.78795C26.1563 6.91987 26.2254 9.26502 25.5085 11.4397C24.6857 13.7152 23.3482 15.7853 21.5929 17.4994C19.0719 19.8691 16.3032 21.98 13.3311 23.7984L13.0048 23.9874L13.0831 24ZM19.4916 3.98167C19.239 3.97903 18.9938 4.06378 18.8004 4.22056C18.6069 4.37734 18.478 4.59579 18.437 4.83637C18.396 5.07694 18.4455 5.32374 18.5767 5.53208C18.7079 5.74042 18.9121 5.89654 19.1522 5.97216C19.5657 6.12579 19.9208 6.39738 20.1703 6.75074C20.4198 7.1041 20.5518 7.52245 20.5488 7.95006C20.5326 8.08878 20.5457 8.22923 20.5873 8.36293C20.6289 8.49663 20.6981 8.6208 20.7908 8.72795C20.8836 8.8351 20.9978 8.923 21.1267 8.98634C21.2556 9.04968 21.3964 9.08715 21.5407 9.09649C21.8038 9.08512 22.0536 8.98166 22.2433 8.80544C22.4331 8.62922 22.5499 8.39232 22.5718 8.13903V7.98785C22.5938 7.13124 22.341 6.289 21.848 5.57639C21.3551 4.86377 20.646 4.3156 19.8179 4.00687C19.7114 3.98061 19.601 3.97208 19.4916 3.98167Z" fill="#FF5858"/>
</svg>
