<svg width="18" height="15" viewBox="0 0 18 15" fill="none" xmlns="http://www.w3.org/2000/svg">
<path d="M7.92841 14.9502C7.44581 14.9153 6.9881 14.7197 6.62645 14.3937L3.73595 11.9518H2.25385C1.69245 11.9434 1.15615 11.7145 0.757611 11.3134C0.359074 10.9122 0.129344 10.37 0.116693 9.80066C-0.0388977 8.23486 -0.0388977 6.65716 0.116693 5.09136C0.156764 4.53771 0.397135 4.01861 0.791621 3.63381C1.18611 3.249 1.70687 3.02565 2.25385 3.00665H3.73595L6.56913 0.598007C6.96847 0.248731 7.46803 0.0390618 7.99393 0C8.45202 0.0233935 8.88989 0.198549 9.24043 0.498597C9.59097 0.798645 9.83482 1.20702 9.93457 1.66113C10.0265 2.07133 10.0894 2.48768 10.1229 2.90697L10.1638 3.27242C10.3112 6.09714 10.3112 8.92778 10.1638 11.7525L10.1229 12.1345C10.0934 12.5406 10.0305 12.9435 9.93457 13.3389C9.84068 13.7929 9.60073 14.2024 9.25242 14.5031C8.90412 14.8038 8.46718 14.9786 8.0103 15L7.92841 14.9502ZM14.9786 14.7674C14.8233 14.6414 14.7185 14.4623 14.6838 14.2636C14.6492 14.0649 14.687 13.8602 14.7903 13.6877C15.9197 11.8195 16.5174 9.67071 16.5174 7.47923C16.5174 5.28776 15.9197 3.139 14.7903 1.27076C14.6755 1.1018 14.6309 0.893792 14.6661 0.691727C14.7014 0.489662 14.8136 0.309795 14.9786 0.191039C15.1377 0.0759868 15.335 0.0289256 15.528 0.0599959C15.721 0.0910662 15.8942 0.197779 16.0104 0.357149C17.311 2.48932 18 4.947 18 7.45432C18 9.96163 17.311 12.4193 16.0104 14.5515C15.9416 14.6545 15.8488 14.7388 15.7403 14.7968C15.6317 14.8547 15.5107 14.8846 15.388 14.8837C15.2433 14.8866 15.1009 14.8461 14.9786 14.7674ZM12.3911 12.2757C12.2336 12.1493 12.1275 11.9687 12.0927 11.7681C12.058 11.5675 12.0972 11.3609 12.2028 11.1877C12.867 10.0772 13.2183 8.8031 13.2183 7.50415C13.2183 6.2052 12.867 4.93114 12.2028 3.8206C12.0972 3.64737 12.058 3.44082 12.0927 3.24022C12.1275 3.03962 12.2336 2.85895 12.3911 2.73256C12.4705 2.67537 12.5603 2.63471 12.6553 2.61293C12.7503 2.59115 12.8486 2.58867 12.9445 2.60566C13.0405 2.62266 13.1321 2.65877 13.2142 2.71192C13.2963 2.76506 13.3672 2.83418 13.4228 2.91529C14.2612 4.28723 14.7053 5.86929 14.7053 7.48339C14.7053 9.09749 14.2612 10.6795 13.4228 12.0515C13.3698 12.1341 13.3012 12.2052 13.221 12.2608C13.1407 12.3164 13.0505 12.3554 12.9553 12.3754C12.8602 12.3955 12.7621 12.3963 12.6667 12.3778C12.5712 12.3592 12.4804 12.3217 12.3993 12.2674L12.3911 12.2757Z" fill="#99A7C7"/>
</svg>
