<svg width="21" height="21" viewBox="0 0 21 21" fill="none" xmlns="http://www.w3.org/2000/svg">
<path fill-rule="evenodd" clip-rule="evenodd" d="M9.88442 1.1693C9.72616 0.743233 9.14758 0.199168 8.72913 0.0829746C8.29093 -0.0386304 1.62857 -0.0217387 1.23809 0.10208C0.840144 0.228195 0.231546 0.859917 0.108301 1.27483C-0.0361002 1.76117 -0.0361002 15.5293 0.108301 16.0157C0.247699 16.4849 0.847114 17.0709 1.32033 17.2006C1.59815 17.2767 2.91071 17.2959 6.64118 17.2784L11.5933 17.2552L11.7483 17.0476C11.9019 16.8418 11.895 16.7728 10.9574 9.17563C10.4182 4.80654 9.95691 1.3643 9.88442 1.1693ZM20.4839 4.35391C20.3393 4.20319 20.084 4.00935 19.9167 3.92308C19.6293 3.77499 19.3904 3.7663 15.5912 3.7663H11.57V3.96679C11.57 4.07708 11.9223 6.98289 12.3528 10.4242C12.8261 14.2069 13.1153 16.7932 13.084 16.9643C12.9924 17.4657 12.755 17.8001 11.3639 19.3872L9.99815 20.9452L14.6585 20.9684C18.1587 20.9858 19.4107 20.9665 19.6877 20.8905C20.1609 20.7609 20.7604 20.1749 20.8997 19.7057C20.9752 19.4512 20.9999 17.6424 20.9999 12.3565C20.9999 5.68887 21.014 4.98383 20.6757 4.55996C20.6214 4.49187 20.5579 4.43104 20.4839 4.35391ZM4.48477 4.57777C4.55758 4.49732 4.69632 4.41598 4.79308 4.39704C5.14732 4.32775 6.04308 4.34341 6.33311 4.42402C6.53885 4.48117 6.65964 4.57629 6.72294 4.73102C6.81757 4.9621 8.04403 10.9959 8.04403 11.2302C8.04403 11.4686 7.72825 11.7202 7.42903 11.7202C6.98378 11.7202 6.86824 11.5197 6.65021 10.3681L6.45595 9.34225H5.56904C5.08115 9.34225 4.68206 9.35562 4.68206 9.37193C4.68206 9.65959 4.23418 11.4623 4.13561 11.5711C3.96473 11.7598 3.47618 11.7675 3.27405 11.5845C3.18114 11.5005 3.12407 11.3354 3.12407 11.1509C3.12407 10.6172 4.34151 4.73611 4.48477 4.57777ZM6.13386 7.80477C6.10917 7.68078 6.00479 7.14574 5.90171 6.61578C5.74903 5.83104 5.68802 5.65228 5.57298 5.65228C5.46827 5.65228 5.40898 5.76389 5.3442 6.08278C5.29607 6.31951 5.1875 6.85456 5.10296 7.27177L4.94929 8.03026H5.56388H6.17854L6.13386 7.80477ZM16.026 8.8309C16.0529 8.60368 16.1371 8.34899 16.2131 8.26503C16.3004 8.1686 16.463 8.11226 16.654 8.11226C17.0503 8.11226 17.2201 8.30832 17.2829 8.83902L17.3328 9.26025H18.218C19.1386 9.26025 19.4776 9.3334 19.6582 9.57095C19.9216 9.9178 19.6816 10.4246 19.2041 10.5294C19.0135 10.5713 18.9373 10.6504 18.8612 10.8852C18.7039 11.3711 18.3021 12.1324 17.9153 12.6779C17.7176 12.9566 17.5559 13.205 17.5559 13.2299C17.5559 13.2548 17.9065 13.5542 18.3349 13.8953C19.0618 14.4739 19.1139 14.5354 19.1139 14.8129C19.1139 15.2062 18.9198 15.4105 18.5477 15.4088C18.3045 15.4077 18.1198 15.3002 17.4911 14.7938C16.7456 14.1935 16.5522 14.0951 16.4481 14.2635C16.4198 14.3093 16.1004 14.586 15.7381 14.8785C15.2202 15.2967 15.0208 15.4102 14.804 15.4102C14.325 15.4102 14.0172 14.859 14.2991 14.5062C14.354 14.4374 14.6835 14.1503 15.0313 13.868C15.379 13.5858 15.6847 13.3207 15.7106 13.2788C15.7365 13.237 15.6118 12.9891 15.4337 12.7279C15.1112 12.2554 14.503 11.0683 14.4192 10.7479C14.3933 10.6487 14.2793 10.5568 14.1412 10.5239C13.7764 10.4371 13.62 10.2547 13.62 9.91625C13.62 9.39252 13.8018 9.30593 14.9711 9.27263L15.9771 9.24393L16.026 8.8309ZM16.7783 12.1664C16.9908 11.8946 17.5373 10.9507 17.5946 10.7567C17.6489 10.5726 17.6471 10.5722 16.6584 10.5722H15.6678L15.7953 10.8797C15.9219 11.1847 16.3112 11.8604 16.5367 12.1664C16.6528 12.324 16.6552 12.324 16.7783 12.1664ZM8.31717 20.7402C8.37408 20.7402 8.87304 20.242 9.42596 19.6332L10.4313 18.5262H8.81704H7.20288L7.26028 19.0387C7.29193 19.3206 7.38279 19.6988 7.46224 19.8792C7.61009 20.2149 8.13169 20.7402 8.31717 20.7402Z" fill="#2B4E42"/>
</svg>
