<svg width="31" height="31" viewBox="0 0 31 31" fill="none" xmlns="http://www.w3.org/2000/svg">
<g id="Group 75967">
<circle id="Ellipse 243" cx="15.11" cy="15.11" r="14.61" fill="#7D8CAC" stroke="#F2F2F2"/>
<path id="Camera-2" d="M18.9529 21.2421H11.2675C10.4808 21.2421 9.72623 20.93 9.16933 20.3744C8.61243 19.8188 8.29868 19.065 8.29688 18.2783V14.238C8.29688 13.8479 8.37373 13.4616 8.52301 13.1012C8.6723 12.7408 8.89111 12.4133 9.16696 12.1375C9.4428 11.8616 9.77028 11.6428 10.1307 11.4935C10.4911 11.3443 10.8774 11.2674 11.2675 11.2674C11.2947 11.2683 11.3217 11.261 11.3448 11.2464C11.3678 11.2319 11.386 11.2107 11.3969 11.1857L11.4378 11.1039L11.4923 10.9881C11.6695 10.6133 11.8738 10.1841 11.9965 9.93883C12.13 9.65202 12.3427 9.40928 12.6094 9.23911C12.8761 9.06894 13.1859 8.9784 13.5022 8.97815H16.7113C17.0286 8.97793 17.3395 9.06819 17.6074 9.23834C17.8753 9.40849 18.0891 9.65148 18.2238 9.93883C18.3329 10.1569 18.4964 10.4975 18.6531 10.8314L18.7485 11.0358L18.8166 11.1857C18.8305 11.2098 18.8503 11.2299 18.8741 11.2442C18.898 11.2585 18.9251 11.2665 18.9529 11.2674C19.343 11.2674 19.7292 11.3443 20.0896 11.4935C20.4501 11.6428 20.7775 11.8616 21.0534 12.1375C21.3292 12.4133 21.548 12.7408 21.6973 13.1012C21.8466 13.4616 21.9235 13.8479 21.9235 14.238V18.2783C21.9217 19.065 21.6079 19.8188 21.051 20.3744C20.4941 20.93 19.7395 21.2421 18.9529 21.2421ZM15.1102 13.3387C14.7563 13.3386 14.4059 13.4091 14.0795 13.5459C13.7531 13.6828 13.4573 13.8833 13.2093 14.1358C12.9605 14.3813 12.7635 14.6742 12.6301 14.9972C12.4967 15.3203 12.4295 15.6668 12.4325 16.0163C12.4325 16.7253 12.7137 17.4053 13.2144 17.9072C13.7151 18.4092 14.3944 18.6921 15.1033 18.6939C15.6301 18.691 16.1444 18.5333 16.5821 18.2402C17.0198 17.9472 17.3616 17.5318 17.565 17.0459C17.7684 16.56 17.8243 16.025 17.7258 15.5075C17.6273 14.9901 17.3787 14.513 17.0111 14.1358C16.7624 13.8843 16.4664 13.6843 16.1402 13.5475C15.814 13.4107 15.4639 13.3397 15.1102 13.3387ZM18.9324 13.182C18.8519 13.1829 18.7724 13.1996 18.6983 13.2312C18.6242 13.2629 18.5571 13.3088 18.5008 13.3664C18.4445 13.4239 18.4001 13.492 18.3701 13.5668C18.3401 13.6415 18.3251 13.7214 18.326 13.802C18.326 13.9646 18.3906 14.1206 18.5056 14.2356C18.6206 14.3506 18.7766 14.4152 18.9392 14.4152C19.1019 14.4152 19.2578 14.3506 19.3728 14.2356C19.4878 14.1206 19.5525 13.9646 19.5525 13.802C19.5525 13.6393 19.4878 13.4834 19.3728 13.3684C19.2578 13.2534 19.1019 13.1888 18.9392 13.1888L18.9324 13.182ZM15.1102 17.6719C14.8931 17.6728 14.678 17.6308 14.4771 17.5484C14.2763 17.4659 14.0937 17.3446 13.9399 17.1914C13.7861 17.0382 13.664 16.8561 13.5807 16.6557C13.4974 16.4552 13.4545 16.2402 13.4545 16.0231C13.4509 15.8077 13.4914 15.5939 13.5734 15.3947C13.6554 15.1955 13.7773 15.0152 13.9315 14.8648C14.1232 14.6712 14.3598 14.5279 14.6203 14.4477C14.8807 14.3675 15.1569 14.3527 15.4243 14.4048C15.6918 14.4569 15.9423 14.5743 16.1536 14.7464C16.3648 14.9185 16.5303 15.1401 16.6354 15.3916C16.7405 15.643 16.7818 15.9165 16.7559 16.1877C16.7299 16.459 16.6373 16.7197 16.4865 16.9466C16.3356 17.1735 16.1311 17.3597 15.891 17.4886C15.6509 17.6175 15.3827 17.6851 15.1102 17.6855V17.6719Z" fill="#F2F2F2"/>
</g>
</svg>
