<svg width="19" height="19" viewBox="0 0 19 19" fill="none" xmlns="http://www.w3.org/2000/svg">
<g id="Iconly Bold Login">
<g id="Login">
<path id="Login-2" d="M9.82481 0.00221365C10.9603 -0.0155952 12.0566 0.417186 12.8737 1.20583C13.6909 1.99447 14.1623 3.07472 14.1847 4.21013L14.1847 8.76951L17.9842 8.76951C18.1782 8.76951 18.3642 8.84656 18.5014 8.98373C18.6385 9.12089 18.7156 9.30693 18.7156 9.50091C18.7156 9.69489 18.6385 9.88092 18.5014 10.0181C18.3642 10.1552 18.1782 10.2323 17.9842 10.2323L14.1847 10.2323L14.1847 14.7727C14.1623 15.9115 13.6902 16.9951 12.8715 17.787C12.0529 18.579 10.9542 19.0149 9.8153 18.9996L5.06595 18.9996C3.93048 19.0149 2.8352 18.5796 2.01986 17.7892C1.20452 16.9988 0.735585 15.9176 0.715588 14.7822L0.715589 4.21962C0.724233 3.6554 0.844257 3.09845 1.06877 2.58076C1.29329 2.06306 1.61785 1.59483 2.02386 1.20294C2.42987 0.811057 2.90932 0.503237 3.43464 0.297179C3.95995 0.0911185 4.5208 -0.00911265 5.08497 0.00221324L9.83432 0.00221366L9.82481 0.00221365ZM8.10555 8.76001L9.67285 7.24022C9.80685 7.10502 9.88203 6.92238 9.88203 6.73203C9.88203 6.54169 9.80685 6.35904 9.67285 6.22385C9.52599 6.09036 9.33464 6.0164 9.13618 6.0164C8.93771 6.0164 8.74636 6.09036 8.5995 6.22385L5.74989 8.98797C5.61875 9.12274 5.54535 9.30336 5.54535 9.4914C5.54535 9.67944 5.61875 9.86006 5.74989 9.99483L8.5995 12.7685C8.74428 12.9061 8.93641 12.9829 9.13618 12.9829C9.33594 12.9829 9.52808 12.9061 9.67285 12.7685C9.80685 12.6333 9.88203 12.4506 9.88203 12.2603C9.88203 12.0699 9.80685 11.8873 9.67285 11.7521L8.10555 10.2418L14.1847 10.2418L14.1847 8.779L8.10555 8.76001Z" fill="#EA565A"/>
</g>
</g>
</svg>
