<svg width="17" height="20" viewBox="0 0 17 20" fill="none" xmlns="http://www.w3.org/2000/svg">
<g id="Iconly Bold Notification">
<g id="Notification-2">
<path id="Notification-3" d="M7.98619 19.9817C7.36248 19.891 6.77312 19.6394 6.27616 19.2517C6.07853 19.1224 5.91283 18.9499 5.79158 18.7472C5.67032 18.5446 5.59668 18.317 5.57618 18.0817C5.57618 17.5817 6.03617 17.3417 6.46617 17.2417C7.7977 17.1437 9.13463 17.1437 10.4662 17.2417C10.8962 17.3417 11.3562 17.5717 11.3562 18.0817C11.3375 18.3163 11.2657 18.5436 11.1462 18.7463C11.0266 18.949 10.8625 19.1219 10.6662 19.2517C10.1666 19.6414 9.57351 19.8931 8.94618 19.9817C8.77967 19.992 8.61269 19.992 8.44618 19.9817C8.29296 19.9901 8.1394 19.9901 7.98619 19.9817ZM3.76619 15.7617C2.6598 15.6615 1.62828 15.16 0.866161 14.3517C0.30329 13.6872 -0.00192249 12.8425 0.00617522 11.9717C-0.0442768 11.138 0.215785 10.3151 0.736186 9.66172C1.10107 9.28631 1.38376 8.83901 1.56626 8.34833C1.74876 7.85764 1.82707 7.33433 1.79618 6.81171V6.38171C1.73136 4.98246 2.19139 3.60944 3.08616 2.53172C3.7455 1.74545 4.56855 1.1126 5.49778 0.677345C6.42702 0.242089 7.44005 0.014925 8.46617 0.0117188H8.55616C9.60516 0.0129741 10.6405 0.249972 11.5856 0.7052C12.5306 1.16043 13.3613 1.82224 14.0162 2.64172C14.862 3.69864 15.2892 5.02996 15.2162 6.38171V6.81171C15.192 7.33198 15.2715 7.85185 15.4501 8.34112C15.6286 8.83038 15.9026 9.27928 16.2562 9.66172C16.7749 10.316 17.0347 11.1382 16.9862 11.9717C16.9943 12.8425 16.689 13.6872 16.1262 14.3517C15.364 15.16 14.3326 15.6615 13.2262 15.7617C11.6562 15.9017 10.0762 16.0117 8.48619 16.0117C6.9094 16.0175 5.33355 15.934 3.76619 15.7617Z" fill="#B1BACD"/>
</g>
</g>
</svg>
