<svg width="16" height="20" viewBox="0 0 16 20" fill="none" xmlns="http://www.w3.org/2000/svg">
<g id="Iconly Bold Profile">
<g id="Profile-2">
<path id="Profile-3" d="M0 16.5749C0 13.8549 3.69 13.1749 8 13.1749C12.31 13.1749 16 13.8749 16 16.5949C16 19.3149 12.31 19.9949 8 19.9949C3.69 19.9949 0 19.2949 0 16.5749ZM2.75 5.29488C2.75 4.24862 3.06027 3.22585 3.64154 2.35592C4.22281 1.48598 5.049 0.807957 6.01562 0.407569C6.98225 0.00718173 8.04586 -0.0975872 9.07202 0.106529C10.0982 0.310645 11.0408 0.814478 11.7806 1.5543C12.5204 2.29412 13.0242 3.2367 13.2283 4.26286C13.4324 5.28901 13.3277 6.35266 12.9273 7.31928C12.5269 8.2859 11.8489 9.11209 10.9789 9.69337C10.109 10.2746 9.08624 10.5849 8.03998 10.5849C7.34707 10.5875 6.66045 10.4535 6.01941 10.1904C5.37837 9.9274 4.79549 9.54053 4.30414 9.05196C3.81278 8.5634 3.42263 7.98271 3.15594 7.34318C2.88926 6.70364 2.75131 6.01779 2.75 5.32488V5.29488Z" fill="#B1BACD"/>
</g>
</g>
</svg>
