<svg width="20" height="20" viewBox="0 0 20 20" fill="none" xmlns="http://www.w3.org/2000/svg">
<path id="image 97 (Traced)" fill-rule="evenodd" clip-rule="evenodd" d="M6.36072 0.203857C2.81644 1.67883 0.422481 4.90433 0.0345274 8.7275C-0.0350017 9.41309 0.00476499 10.7079 0.115395 11.359C0.301556 12.4544 0.586592 13.3371 1.06362 14.2957C2.08985 16.3576 3.75929 18.0081 5.81007 18.988C7.2019 19.6532 8.43338 19.9519 9.96056 19.9949C11.7621 20.0456 13.2649 19.722 14.8559 18.9408C17.0782 17.8497 18.8643 15.9254 19.8132 13.5999C20.0281 13.0732 20.0502 12.8676 19.9173 12.6338C19.7081 12.2659 19.4481 12.2214 18.7496 12.4339C16.8113 13.0235 14.7407 12.9526 12.8942 12.2333C10.7273 11.3891 9.03809 9.82321 8.03621 7.72993C7.09711 5.76771 6.91249 3.44382 7.53279 1.39348C7.7766 0.587504 7.73971 0.294819 7.36755 0.0831729C7.12787 -0.053144 6.91774 -0.0279651 6.36072 0.203857Z" fill="#B1BACD"/>
</svg>
