<svg width="20" height="20" viewBox="0 0 20 20" fill="none" xmlns="http://www.w3.org/2000/svg">
<path id="Path 34179" d="M9.65086 18.8822C7.37663 17.4713 5.26974 15.8071 3.37056 13.9214C2.03034 12.58 1.01255 10.9516 0.394106 9.15911C-0.736946 5.6469 0.572667 1.62868 4.24362 0.438101C5.19858 0.13949 6.21115 0.0737489 7.1967 0.24635C8.18225 0.418951 9.11219 0.824882 9.90882 1.43025C10.7036 0.824987 11.6318 0.419035 12.6158 0.24641C13.5997 0.0737857 14.6107 0.139517 15.5641 0.438101C19.235 1.62868 20.5248 5.6469 19.4334 9.15911C18.8156 10.9519 17.7978 12.5805 16.457 13.9214C14.5526 15.8012 12.4464 17.4648 10.1767 18.8822L9.93859 19.0409L9.65086 18.8822Z" fill="#B1BACD"/>
</svg>
