<svg width="19" height="20" viewBox="0 0 19 20" fill="none" xmlns="http://www.w3.org/2000/svg">
<path id="Subtract" fill-rule="evenodd" clip-rule="evenodd" d="M8.81252 1.06474C8.67143 0.676771 8.15558 0.181357 7.78252 0.0755547C7.39183 -0.0351759 1.45196 -0.0197948 1.10382 0.0929519C0.749036 0.207789 0.206436 0.783021 0.0965561 1.16083C-0.0321854 1.60368 -0.0321854 14.1407 0.0965561 14.5835C0.220838 15.0108 0.75525 15.5444 1.17715 15.6624C1.42484 15.7317 2.59506 15.7492 5.92099 15.7333L10.3361 15.7122L10.4743 15.5231C10.6112 15.3358 10.6051 15.2729 9.76913 8.35512C9.28838 4.37673 8.87715 1.2423 8.81252 1.06474ZM18.2626 3.96457C18.1336 3.82733 17.906 3.65082 17.7569 3.57227C17.5006 3.43742 17.2876 3.42951 13.9005 3.42951H10.3153V3.61207C10.3153 3.71249 10.6294 6.35846 11.0133 9.49207C11.4352 12.9365 11.693 15.2915 11.6652 15.4473C11.5835 15.9038 11.3718 16.2084 10.1315 17.6535L8.91392 19.0722L13.0689 19.0933C16.1895 19.1092 17.3057 19.0916 17.5527 19.0224C17.9746 18.9044 18.5091 18.3708 18.6333 17.9435C18.7006 17.7118 18.7226 16.0647 18.7226 11.2516C18.7226 5.1699 18.7352 4.536 18.432 4.15024C18.3839 4.08903 18.3279 4.03406 18.2626 3.96457ZM3.99843 4.16841C4.06334 4.09516 4.18704 4.02109 4.27331 4.00384C4.58913 3.94075 5.38775 3.95501 5.64633 4.02841C5.82976 4.08045 5.93744 4.16706 5.99388 4.30796C6.07825 4.51837 7.17171 10.0126 7.17171 10.226C7.17171 10.443 6.89017 10.6722 6.62341 10.6722C6.22644 10.6722 6.12343 10.4896 5.92904 9.44099L5.75585 8.50684H4.96512C4.53013 8.50684 4.17432 8.51901 4.17432 8.53387C4.17432 8.7958 3.77501 10.4373 3.68713 10.5364C3.53478 10.7082 3.09921 10.7152 2.919 10.5486C2.83617 10.4721 2.78529 10.3218 2.78529 10.1538C2.78529 9.66776 3.87071 4.31259 3.99843 4.16841ZM5.46868 7.10684C5.44668 6.99394 5.35361 6.50674 5.26171 6.02417C5.12559 5.30961 5.0712 5.14684 4.96863 5.14684C4.87527 5.14684 4.82241 5.24846 4.76466 5.53884L4.54958 6.62151L4.41258 7.31217H4.96051H5.50852L5.46868 7.10684ZM14.2881 8.04122C14.3121 7.83432 14.3872 7.6024 14.4549 7.52594C14.5327 7.43814 14.6777 7.38684 14.8479 7.38684C15.2013 7.38684 15.3527 7.56537 15.4087 8.04861L15.4532 8.43217H16.2424C17.0632 8.43217 17.3654 8.49878 17.5264 8.71509C17.7613 9.03092 17.5473 9.49236 17.1215 9.58786C16.9516 9.62602 16.8837 9.698 16.8158 9.91184C16.6756 10.3542 16.3174 11.0475 15.9725 11.5442C15.7963 11.798 15.6521 12.0242 15.6521 12.0469C15.6521 12.0695 15.9647 12.3422 16.3466 12.6528C16.9947 13.1796 17.0412 13.2356 17.0412 13.4883C17.0412 13.8464 16.868 14.0325 16.5364 14.0309C16.3195 14.0299 16.1548 13.932 15.5943 13.4709C14.9297 12.9243 14.7572 12.8347 14.6644 12.988C14.6392 13.0297 14.3544 13.2817 14.0314 13.548C13.5697 13.9288 13.3919 14.0322 13.1986 14.0322C12.7716 14.0322 12.4971 13.5303 12.7485 13.209C12.7974 13.1464 13.0912 12.8849 13.4012 12.6279C13.7113 12.3709 13.9838 12.1295 14.0069 12.0914C14.03 12.0533 13.9188 11.8276 13.76 11.5898C13.4725 11.1595 12.9303 10.0785 12.8556 9.78678C12.8325 9.69643 12.7308 9.6128 12.6077 9.58286C12.2825 9.50379 12.143 9.33773 12.143 9.02951C12.143 8.55261 12.3051 8.47376 13.3476 8.44345L14.2444 8.41731L14.2881 8.04122ZM14.9589 11.0784C15.1483 10.831 15.6355 9.9715 15.6866 9.79484C15.735 9.62714 15.7334 9.62684 14.8519 9.62684H13.9687L14.0824 9.90684C14.1952 10.1845 14.5424 10.7998 14.7434 11.0784C14.8469 11.2219 14.849 11.2219 14.9589 11.0784ZM7.41523 18.8855C7.46596 18.8855 7.91082 18.4319 8.40378 17.8775L9.30008 16.8695H7.86089H6.42178L6.47295 17.3362C6.50117 17.5929 6.58217 17.9372 6.65301 18.1015C6.78483 18.4073 7.24986 18.8855 7.41523 18.8855Z" fill="#B1BACD"/>
</svg>
